<mxfile host="app.diagrams.net" modified="2023-04-07T21:45:27.335Z" agent="Mozilla/5.0 (Windows NT 10.0; Win64; x64) AppleWebKit/537.36 (KHTML, like Gecko) Chrome/111.0.0.0 Safari/537.36 Edg/111.0.1661.62" etag="5oxUypOu_FUs1vC7WVj-" version="21.1.5" type="device">
  <diagram name="PÃ¡gina-1" id="9cW4-nEDKYchpZNb6eHA">
    <mxGraphModel dx="4774" dy="2460" grid="1" gridSize="10" guides="1" tooltips="1" connect="1" arrows="1" fold="1" page="1" pageScale="1" pageWidth="827" pageHeight="1169" math="0" shadow="0">
      <root>
        <mxCell id="0" />
        <mxCell id="1" parent="0" />
        <mxCell id="t9GdW167zXyRgESBG7st-1" value="" style="edgeStyle=orthogonalEdgeStyle;rounded=0;orthogonalLoop=1;jettySize=auto;html=1;endArrow=block;endFill=0;" parent="1" source="m5QQNSZ4u08WpUOfqCWW-27" target="t9GdW167zXyRgESBG7st-25" edge="1">
          <mxGeometry relative="1" as="geometry">
            <mxPoint x="-100" y="468" as="targetPoint" />
            <Array as="points">
              <mxPoint x="-770" y="360" />
              <mxPoint x="-770" y="360" />
            </Array>
          </mxGeometry>
        </mxCell>
        <mxCell id="m5QQNSZ4u08WpUOfqCWW-27" value="Tv" style="swimlane;fontStyle=1;align=center;verticalAlign=top;childLayout=stackLayout;horizontal=1;startSize=26;horizontalStack=0;resizeParent=1;resizeParentMax=0;resizeLast=0;collapsible=1;marginBottom=0;whiteSpace=wrap;html=1;" parent="1" vertex="1">
          <mxGeometry x="-960" y="310" width="160" height="80" as="geometry" />
        </mxCell>
        <mxCell id="m5QQNSZ4u08WpUOfqCWW-29" value="" style="line;strokeWidth=1;fillColor=none;align=left;verticalAlign=middle;spacingTop=-1;spacingLeft=3;spacingRight=3;rotatable=0;labelPosition=right;points=[];portConstraint=eastwest;strokeColor=inherit;" parent="m5QQNSZ4u08WpUOfqCWW-27" vertex="1">
          <mxGeometry y="26" width="160" height="8" as="geometry" />
        </mxCell>
        <mxCell id="m5QQNSZ4u08WpUOfqCWW-30" value="+ TV( )&lt;br&gt;+ getTipo( ) : String" style="text;strokeColor=none;fillColor=none;align=left;verticalAlign=top;spacingLeft=4;spacingRight=4;overflow=hidden;rotatable=0;points=[[0,0.5],[1,0.5]];portConstraint=eastwest;whiteSpace=wrap;html=1;" parent="m5QQNSZ4u08WpUOfqCWW-27" vertex="1">
          <mxGeometry y="34" width="160" height="46" as="geometry" />
        </mxCell>
        <mxCell id="WsOr0CwrHRGJlh60g0OZ-8" style="edgeStyle=orthogonalEdgeStyle;rounded=0;orthogonalLoop=1;jettySize=auto;html=1;endArrow=block;endFill=0;entryX=0.001;entryY=0.118;entryDx=0;entryDy=0;entryPerimeter=0;exitX=1;exitY=0.25;exitDx=0;exitDy=0;" edge="1" parent="1" source="m5QQNSZ4u08WpUOfqCWW-31" target="t9GdW167zXyRgESBG7st-17">
          <mxGeometry relative="1" as="geometry">
            <mxPoint x="-210" y="-190" as="targetPoint" />
            <Array as="points">
              <mxPoint x="-270" y="-285" />
              <mxPoint x="-270" y="-119" />
            </Array>
          </mxGeometry>
        </mxCell>
        <mxCell id="m5QQNSZ4u08WpUOfqCWW-31" value="Lampada" style="swimlane;fontStyle=1;align=center;verticalAlign=top;childLayout=stackLayout;horizontal=1;startSize=26;horizontalStack=0;resizeParent=1;resizeParentMax=0;resizeLast=0;collapsible=1;marginBottom=0;whiteSpace=wrap;html=1;" parent="1" vertex="1">
          <mxGeometry x="-610" y="-305" width="160" height="80" as="geometry" />
        </mxCell>
        <mxCell id="m5QQNSZ4u08WpUOfqCWW-33" value="" style="line;strokeWidth=1;fillColor=none;align=left;verticalAlign=middle;spacingTop=-1;spacingLeft=3;spacingRight=3;rotatable=0;labelPosition=right;points=[];portConstraint=eastwest;strokeColor=inherit;" parent="m5QQNSZ4u08WpUOfqCWW-31" vertex="1">
          <mxGeometry y="26" width="160" height="8" as="geometry" />
        </mxCell>
        <mxCell id="m5QQNSZ4u08WpUOfqCWW-34" value="+ Lampada( )&lt;br&gt;+ getTipo( ) : String" style="text;strokeColor=none;fillColor=none;align=left;verticalAlign=top;spacingLeft=4;spacingRight=4;overflow=hidden;rotatable=0;points=[[0,0.5],[1,0.5]];portConstraint=eastwest;whiteSpace=wrap;html=1;" parent="m5QQNSZ4u08WpUOfqCWW-31" vertex="1">
          <mxGeometry y="34" width="160" height="46" as="geometry" />
        </mxCell>
        <mxCell id="WsOr0CwrHRGJlh60g0OZ-36" style="edgeStyle=orthogonalEdgeStyle;rounded=0;orthogonalLoop=1;jettySize=auto;html=1;endArrow=block;endFill=0;" edge="1" parent="1" source="m5QQNSZ4u08WpUOfqCWW-35" target="t9GdW167zXyRgESBG7st-17">
          <mxGeometry relative="1" as="geometry">
            <Array as="points">
              <mxPoint x="-200" y="160" />
              <mxPoint x="-200" y="45" />
            </Array>
          </mxGeometry>
        </mxCell>
        <mxCell id="m5QQNSZ4u08WpUOfqCWW-35" value="ArCondicionado" style="swimlane;fontStyle=1;align=center;verticalAlign=top;childLayout=stackLayout;horizontal=1;startSize=26;horizontalStack=0;resizeParent=1;resizeParentMax=0;resizeLast=0;collapsible=1;marginBottom=0;whiteSpace=wrap;html=1;" parent="1" vertex="1">
          <mxGeometry x="-705" y="115" width="350" height="160" as="geometry" />
        </mxCell>
        <mxCell id="m5QQNSZ4u08WpUOfqCWW-36" value="- temperaturaAmbiente: Integer&lt;br&gt;- temperaturaTarget : Integer" style="text;strokeColor=none;fillColor=none;align=left;verticalAlign=top;spacingLeft=4;spacingRight=4;overflow=hidden;rotatable=0;points=[[0,0.5],[1,0.5]];portConstraint=eastwest;whiteSpace=wrap;html=1;" parent="m5QQNSZ4u08WpUOfqCWW-35" vertex="1">
          <mxGeometry y="26" width="350" height="44" as="geometry" />
        </mxCell>
        <mxCell id="m5QQNSZ4u08WpUOfqCWW-37" value="" style="line;strokeWidth=1;fillColor=none;align=left;verticalAlign=middle;spacingTop=-1;spacingLeft=3;spacingRight=3;rotatable=0;labelPosition=right;points=[];portConstraint=eastwest;strokeColor=inherit;" parent="m5QQNSZ4u08WpUOfqCWW-35" vertex="1">
          <mxGeometry y="70" width="350" height="8" as="geometry" />
        </mxCell>
        <mxCell id="m5QQNSZ4u08WpUOfqCWW-38" value="+ ArCondicionado( )&lt;br&gt;+ getTemperaturaTarget( ) : Integer&lt;br&gt;+ setTemperaturaTarget(temperaturaTarget : Integer) : void&lt;br&gt;+ getTipo( ) : String" style="text;strokeColor=none;fillColor=none;align=left;verticalAlign=top;spacingLeft=4;spacingRight=4;overflow=hidden;rotatable=0;points=[[0,0.5],[1,0.5]];portConstraint=eastwest;whiteSpace=wrap;html=1;" parent="m5QQNSZ4u08WpUOfqCWW-35" vertex="1">
          <mxGeometry y="78" width="350" height="82" as="geometry" />
        </mxCell>
        <mxCell id="t9GdW167zXyRgESBG7st-18" style="edgeStyle=orthogonalEdgeStyle;rounded=0;orthogonalLoop=1;jettySize=auto;html=1;endArrow=block;endFill=0;exitX=1;exitY=0.5;exitDx=0;exitDy=0;" parent="1" source="m5QQNSZ4u08WpUOfqCWW-50" target="t9GdW167zXyRgESBG7st-17" edge="1">
          <mxGeometry relative="1" as="geometry">
            <Array as="points">
              <mxPoint x="-370" y="-123" />
              <mxPoint x="-370" y="-85" />
            </Array>
          </mxGeometry>
        </mxCell>
        <mxCell id="m5QQNSZ4u08WpUOfqCWW-47" value="Cafeteira" style="swimlane;fontStyle=1;align=center;verticalAlign=top;childLayout=stackLayout;horizontal=1;startSize=26;horizontalStack=0;resizeParent=1;resizeParentMax=0;resizeLast=0;collapsible=1;marginBottom=0;whiteSpace=wrap;html=1;" parent="1" vertex="1">
          <mxGeometry x="-597.5" y="-180" width="135" height="80" as="geometry" />
        </mxCell>
        <mxCell id="m5QQNSZ4u08WpUOfqCWW-49" value="&#xa;&#xa;&#xa;" style="line;strokeWidth=1;fillColor=none;align=left;verticalAlign=middle;spacingTop=-1;spacingLeft=3;spacingRight=3;rotatable=0;labelPosition=right;points=[];portConstraint=eastwest;strokeColor=inherit;" parent="m5QQNSZ4u08WpUOfqCWW-47" vertex="1">
          <mxGeometry y="26" width="135" height="8" as="geometry" />
        </mxCell>
        <mxCell id="m5QQNSZ4u08WpUOfqCWW-50" value="+ Cafeteira( )&lt;br&gt;+ getTipo( ) : String" style="text;strokeColor=none;fillColor=none;align=left;verticalAlign=top;spacingLeft=4;spacingRight=4;overflow=hidden;rotatable=0;points=[[0,0.5],[1,0.5]];portConstraint=eastwest;whiteSpace=wrap;html=1;" parent="m5QQNSZ4u08WpUOfqCWW-47" vertex="1">
          <mxGeometry y="34" width="135" height="46" as="geometry" />
        </mxCell>
        <mxCell id="t9GdW167zXyRgESBG7st-2" value="" style="edgeStyle=orthogonalEdgeStyle;rounded=0;orthogonalLoop=1;jettySize=auto;html=1;endArrow=block;endFill=0;" parent="1" source="m5QQNSZ4u08WpUOfqCWW-51" target="t9GdW167zXyRgESBG7st-25" edge="1">
          <mxGeometry relative="1" as="geometry">
            <mxPoint x="-160" y="560" as="targetPoint" />
            <Array as="points">
              <mxPoint x="-740" y="460" />
              <mxPoint x="-740" y="460" />
            </Array>
          </mxGeometry>
        </mxCell>
        <mxCell id="m5QQNSZ4u08WpUOfqCWW-51" value="Radio" style="swimlane;fontStyle=1;align=center;verticalAlign=top;childLayout=stackLayout;horizontal=1;startSize=26;horizontalStack=0;resizeParent=1;resizeParentMax=0;resizeLast=0;collapsible=1;marginBottom=0;whiteSpace=wrap;html=1;" parent="1" vertex="1">
          <mxGeometry x="-960" y="421" width="160" height="80" as="geometry" />
        </mxCell>
        <mxCell id="m5QQNSZ4u08WpUOfqCWW-53" value="" style="line;strokeWidth=1;fillColor=none;align=left;verticalAlign=middle;spacingTop=-1;spacingLeft=3;spacingRight=3;rotatable=0;labelPosition=right;points=[];portConstraint=eastwest;strokeColor=inherit;" parent="m5QQNSZ4u08WpUOfqCWW-51" vertex="1">
          <mxGeometry y="26" width="160" height="8" as="geometry" />
        </mxCell>
        <mxCell id="m5QQNSZ4u08WpUOfqCWW-54" value="+ Radio( )&lt;br&gt;+ getTipo( ) : String" style="text;strokeColor=none;fillColor=none;align=left;verticalAlign=top;spacingLeft=4;spacingRight=4;overflow=hidden;rotatable=0;points=[[0,0.5],[1,0.5]];portConstraint=eastwest;whiteSpace=wrap;html=1;" parent="m5QQNSZ4u08WpUOfqCWW-51" vertex="1">
          <mxGeometry y="34" width="160" height="46" as="geometry" />
        </mxCell>
        <mxCell id="t9GdW167zXyRgESBG7st-3" style="edgeStyle=orthogonalEdgeStyle;rounded=0;orthogonalLoop=1;jettySize=auto;html=1;endArrow=block;endFill=0;entryX=-0.008;entryY=0.898;entryDx=0;entryDy=0;entryPerimeter=0;" parent="1" source="t9GdW167zXyRgESBG7st-25" target="t9GdW167zXyRgESBG7st-17" edge="1">
          <mxGeometry relative="1" as="geometry">
            <mxPoint x="-20" y="420" as="sourcePoint" />
            <mxPoint x="-20" y="330" as="targetPoint" />
            <Array as="points">
              <mxPoint x="-300" y="405" />
              <mxPoint x="-300" y="250" />
              <mxPoint x="-140" y="250" />
              <mxPoint x="-140" y="84" />
            </Array>
          </mxGeometry>
        </mxCell>
        <mxCell id="t9GdW167zXyRgESBG7st-19" style="edgeStyle=orthogonalEdgeStyle;rounded=0;orthogonalLoop=1;jettySize=auto;html=1;endArrow=block;endFill=0;" parent="1" source="m5QQNSZ4u08WpUOfqCWW-68" target="t9GdW167zXyRgESBG7st-17" edge="1">
          <mxGeometry relative="1" as="geometry">
            <mxPoint x="-225" y="70" as="targetPoint" />
            <Array as="points">
              <mxPoint x="-370" y="-20" />
              <mxPoint x="-370" y="-20" />
            </Array>
          </mxGeometry>
        </mxCell>
        <mxCell id="m5QQNSZ4u08WpUOfqCWW-68" value="Aspirador" style="swimlane;fontStyle=1;align=center;verticalAlign=top;childLayout=stackLayout;horizontal=1;startSize=26;horizontalStack=0;resizeParent=1;resizeParentMax=0;resizeLast=0;collapsible=1;marginBottom=0;whiteSpace=wrap;html=1;" parent="1" vertex="1">
          <mxGeometry x="-675" y="-50" width="290" height="120" as="geometry" />
        </mxCell>
        <mxCell id="m5QQNSZ4u08WpUOfqCWW-69" value="- comodos : List&amp;lt;Comodos&amp;gt;" style="text;strokeColor=none;fillColor=none;align=left;verticalAlign=top;spacingLeft=4;spacingRight=4;overflow=hidden;rotatable=0;points=[[0,0.5],[1,0.5]];portConstraint=eastwest;whiteSpace=wrap;html=1;" parent="m5QQNSZ4u08WpUOfqCWW-68" vertex="1">
          <mxGeometry y="26" width="290" height="26" as="geometry" />
        </mxCell>
        <mxCell id="m5QQNSZ4u08WpUOfqCWW-70" value="" style="line;strokeWidth=1;fillColor=none;align=left;verticalAlign=middle;spacingTop=-1;spacingLeft=3;spacingRight=3;rotatable=0;labelPosition=right;points=[];portConstraint=eastwest;strokeColor=inherit;" parent="m5QQNSZ4u08WpUOfqCWW-68" vertex="1">
          <mxGeometry y="52" width="290" height="8" as="geometry" />
        </mxCell>
        <mxCell id="m5QQNSZ4u08WpUOfqCWW-71" value="+ Aspirador( )&lt;br&gt;+ adicionarComodoRota(comodo : Comodo): void&lt;br&gt;+ getTipos( ) : String" style="text;strokeColor=none;fillColor=none;align=left;verticalAlign=top;spacingLeft=4;spacingRight=4;overflow=hidden;rotatable=0;points=[[0,0.5],[1,0.5]];portConstraint=eastwest;whiteSpace=wrap;html=1;" parent="m5QQNSZ4u08WpUOfqCWW-68" vertex="1">
          <mxGeometry y="60" width="290" height="60" as="geometry" />
        </mxCell>
        <mxCell id="t9GdW167zXyRgESBG7st-27" style="edgeStyle=orthogonalEdgeStyle;rounded=0;orthogonalLoop=1;jettySize=auto;html=1;endArrow=none;endFill=0;startArrow=open;startFill=0;" parent="1" source="t9GdW167zXyRgESBG7st-4" target="WsOr0CwrHRGJlh60g0OZ-9" edge="1">
          <mxGeometry relative="1" as="geometry">
            <Array as="points" />
            <mxPoint x="640" y="-250" as="sourcePoint" />
            <mxPoint x="290" y="-77.00000000000023" as="targetPoint" />
          </mxGeometry>
        </mxCell>
        <mxCell id="t9GdW167zXyRgESBG7st-4" value="&lt;p style=&quot;margin:0px;margin-top:4px;text-align:center;&quot;&gt;&lt;i&gt;&amp;lt;&amp;lt;Abstract&amp;gt;&amp;gt;&lt;/i&gt;&lt;br&gt;&lt;b&gt;Comodo&lt;/b&gt;&lt;/p&gt;&lt;hr size=&quot;1&quot;&gt;&lt;p style=&quot;margin:0px;margin-left:4px;&quot;&gt;- nome: String&lt;/p&gt;&lt;p style=&quot;margin:0px;margin-left:4px;&quot;&gt;- dispositivos : list&amp;lt;Dispositivo&amp;gt;&lt;/p&gt;&lt;p style=&quot;margin:0px;margin-left:4px;&quot;&gt;- tipoComodo : TipoComodo&lt;/p&gt;&lt;p style=&quot;margin:0px;margin-left:4px;&quot;&gt;- temperatura : Integer&lt;/p&gt;&lt;hr size=&quot;1&quot;&gt;&lt;p style=&quot;margin:0px;margin-left:4px;&quot;&gt;+ Comodo(nome : String, tipoComodo : TipoComodo)&lt;br&gt;&lt;/p&gt;&lt;p style=&quot;margin:0px;margin-left:4px;&quot;&gt;+ getTemperatura( ) : Integer&lt;/p&gt;&lt;p style=&quot;margin:0px;margin-left:4px;&quot;&gt;+ setTemperatura(temperatura : Integer) : void&lt;/p&gt;&lt;p style=&quot;margin:0px;margin-left:4px;&quot;&gt;+ getNome( ) : String&lt;/p&gt;&lt;p style=&quot;margin:0px;margin-left:4px;&quot;&gt;+ getTipoComodo( ) : TipoComodo&lt;/p&gt;&lt;p style=&quot;margin:0px;margin-left:4px;&quot;&gt;+ adicionarDispositivo(dipositivo : Dispositivo) : void&lt;/p&gt;&lt;p style=&quot;margin:0px;margin-left:4px;&quot;&gt;+ removerDispositivo(dispositivo : Dispositivo) : void&lt;/p&gt;&lt;p style=&quot;margin:0px;margin-left:4px;&quot;&gt;+ getDispositivos( ) : List&amp;lt;Dispositivo&amp;gt;&lt;/p&gt;&lt;p style=&quot;margin:0px;margin-left:4px;&quot;&gt;+ desvincular(dispositivo : Dispositivo) : void&lt;/p&gt;" style="verticalAlign=top;align=left;overflow=fill;fontSize=12;fontFamily=Helvetica;html=1;whiteSpace=wrap;" parent="1" vertex="1">
          <mxGeometry x="430" y="-155" width="310" height="270" as="geometry" />
        </mxCell>
        <mxCell id="WsOr0CwrHRGJlh60g0OZ-44" style="edgeStyle=orthogonalEdgeStyle;rounded=0;orthogonalLoop=1;jettySize=auto;html=1;endArrow=open;endFill=0;dashed=1;" edge="1" parent="1" source="t9GdW167zXyRgESBG7st-11" target="E7f-zxkmuoUivOyX0J2V-10">
          <mxGeometry relative="1" as="geometry" />
        </mxCell>
        <mxCell id="t9GdW167zXyRgESBG7st-11" value="&lt;p style=&quot;margin:0px;margin-top:4px;text-align:center;&quot;&gt;&lt;i&gt;&amp;lt;&amp;lt;enumeration&amp;gt;&amp;gt;&lt;/i&gt;&lt;br&gt;&lt;b&gt;TipoDispositivo&lt;/b&gt;&lt;/p&gt;&lt;hr size=&quot;1&quot;&gt;&lt;p style=&quot;margin:0px;margin-left:4px;&quot;&gt;+ nome : String&lt;/p&gt;&lt;p style=&quot;margin:0px;margin-left:4px;&quot;&gt;Ar Condicionado&lt;/p&gt;&lt;p style=&quot;margin:0px;margin-left:4px;&quot;&gt;Aspirador de pÃ³&lt;/p&gt;&lt;p style=&quot;margin:0px;margin-left:4px;&quot;&gt;Cafeteira&lt;/p&gt;&lt;p style=&quot;margin:0px;margin-left:4px;&quot;&gt;Lampada&lt;/p&gt;&lt;p style=&quot;margin:0px;margin-left:4px;&quot;&gt;Radio&lt;/p&gt;&lt;p style=&quot;margin:0px;margin-left:4px;&quot;&gt;Tv&lt;/p&gt;&lt;hr size=&quot;1&quot;&gt;&lt;p style=&quot;margin:0px;margin-left:4px;&quot;&gt;+ TipoDispositivo(nome : String)&lt;br&gt;&lt;/p&gt;&lt;p style=&quot;margin:0px;margin-left:4px;&quot;&gt;+ getNome( ) : String&lt;/p&gt;&lt;p style=&quot;margin:0px;margin-left:4px;&quot;&gt;&lt;u&gt;+ enumCorrespondente(nome : String) : TipoDispositivo&lt;/u&gt;&lt;/p&gt;" style="verticalAlign=top;align=left;overflow=fill;fontSize=12;fontFamily=Helvetica;html=1;whiteSpace=wrap;" parent="1" vertex="1">
          <mxGeometry x="-950" y="600" width="310" height="224" as="geometry" />
        </mxCell>
        <mxCell id="WsOr0CwrHRGJlh60g0OZ-41" style="edgeStyle=orthogonalEdgeStyle;rounded=0;orthogonalLoop=1;jettySize=auto;html=1;dashed=1;endArrow=block;endFill=0;" edge="1" parent="1" source="t9GdW167zXyRgESBG7st-17" target="WsOr0CwrHRGJlh60g0OZ-40">
          <mxGeometry relative="1" as="geometry" />
        </mxCell>
        <mxCell id="WsOr0CwrHRGJlh60g0OZ-42" style="edgeStyle=orthogonalEdgeStyle;rounded=0;orthogonalLoop=1;jettySize=auto;html=1;startArrow=open;startFill=0;endArrow=diamond;endFill=0;" edge="1" parent="1" source="t9GdW167zXyRgESBG7st-17" target="t9GdW167zXyRgESBG7st-4">
          <mxGeometry relative="1" as="geometry" />
        </mxCell>
        <mxCell id="t9GdW167zXyRgESBG7st-17" value="&lt;p style=&quot;margin:0px;margin-top:4px;text-align:center;&quot;&gt;&lt;i&gt;&amp;lt;&amp;lt;Abstract&amp;gt;&amp;gt;&lt;/i&gt;&lt;br&gt;&lt;b&gt;Dispositivo&lt;/b&gt;&lt;/p&gt;&lt;hr size=&quot;1&quot;&gt;&lt;p style=&quot;margin:0px;margin-left:4px;&quot;&gt;- nome: String&lt;/p&gt;&lt;p style=&quot;margin:0px;margin-left:4px;&quot;&gt;- estado: boolean&lt;/p&gt;&lt;p style=&quot;margin:0px;margin-left:4px;&quot;&gt;- comodo: Comodo&lt;/p&gt;&lt;hr size=&quot;1&quot;&gt;&lt;p style=&quot;margin:0px;margin-left:4px;&quot;&gt;+ Dispositivo( )&lt;/p&gt;&lt;p style=&quot;margin:0px;margin-left:4px;&quot;&gt;+ getNome( ) : String&lt;/p&gt;&lt;p style=&quot;margin:0px;margin-left:4px;&quot;&gt;+ getComodo( ) : Comodo&lt;/p&gt;&lt;p style=&quot;margin:0px;margin-left:4px;&quot;&gt;+ setComodo(comodo : Comodo) : void&lt;/p&gt;&lt;p style=&quot;margin:0px;margin-left:4px;&quot;&gt;+ setNome(nome : String) : void&lt;/p&gt;&lt;p style=&quot;margin:0px;margin-left:4px;&quot;&gt;+ getEstado( ) : boolean&lt;/p&gt;&lt;p style=&quot;margin:0px;margin-left:4px;&quot;&gt;+ ligarDesligar( ) : void&lt;/p&gt;&lt;p style=&quot;margin:0px;margin-left:4px;&quot;&gt;&lt;i&gt;+ getTipo( ) : String&lt;/i&gt;&lt;/p&gt;&lt;p style=&quot;margin:0px;margin-left:4px;&quot;&gt;+ toString( ) : String&lt;/p&gt;&lt;p style=&quot;margin:0px;margin-left:4px;&quot;&gt;+ desvincularComodo( ) : void&lt;/p&gt;" style="verticalAlign=top;align=left;overflow=fill;fontSize=12;fontFamily=Helvetica;html=1;whiteSpace=wrap;" parent="1" vertex="1">
          <mxGeometry x="-70" y="-150" width="230" height="260" as="geometry" />
        </mxCell>
        <mxCell id="t9GdW167zXyRgESBG7st-25" value="&lt;p style=&quot;margin:0px;margin-top:4px;text-align:center;&quot;&gt;&lt;i&gt;&amp;lt;&amp;lt;Abstract&amp;gt;&amp;gt;&lt;/i&gt;&lt;br&gt;&lt;b&gt;DispositivoAudioVideo&lt;/b&gt;&lt;/p&gt;&lt;hr size=&quot;1&quot;&gt;&lt;p style=&quot;margin:0px;margin-left:4px;&quot;&gt;- volume: int&lt;/p&gt;&lt;p style=&quot;margin:0px;margin-left:4px;&quot;&gt;- canal: int&lt;/p&gt;&lt;hr size=&quot;1&quot;&gt;&lt;p style=&quot;margin:0px;margin-left:4px;&quot;&gt;+ DispositivoAudioVideo( )&lt;/p&gt;&lt;p style=&quot;margin:0px;margin-left:4px;&quot;&gt;+ gatCanal( ) : int&lt;/p&gt;&lt;p style=&quot;margin:0px;margin-left:4px;&quot;&gt;+ setCanal(canal : int) : void&lt;/p&gt;&lt;p style=&quot;margin:0px;margin-left:4px;&quot;&gt;+ getVolume( ) : int&lt;/p&gt;&lt;p style=&quot;margin:0px;margin-left:4px;&quot;&gt;+ aumentarVolume( ) : void&lt;/p&gt;&lt;p style=&quot;margin:0px;margin-left:4px;&quot;&gt;+ diminuirVolume( ) : void&lt;/p&gt;" style="verticalAlign=top;align=left;overflow=fill;fontSize=12;fontFamily=Helvetica;html=1;whiteSpace=wrap;" parent="1" vertex="1">
          <mxGeometry x="-625" y="310" width="190" height="190" as="geometry" />
        </mxCell>
        <mxCell id="E7f-zxkmuoUivOyX0J2V-1" value="ComodoRepository" style="swimlane;fontStyle=1;align=center;verticalAlign=top;childLayout=stackLayout;horizontal=1;startSize=26;horizontalStack=0;resizeParent=1;resizeParentMax=0;resizeLast=0;collapsible=1;marginBottom=0;whiteSpace=wrap;html=1;" parent="1" vertex="1">
          <mxGeometry x="570" y="-921" width="430" height="330" as="geometry" />
        </mxCell>
        <mxCell id="E7f-zxkmuoUivOyX0J2V-2" value="&lt;u&gt;- ARQUIVO_BD: String&amp;nbsp;&lt;/u&gt;" style="text;strokeColor=none;fillColor=none;align=left;verticalAlign=top;spacingLeft=4;spacingRight=4;overflow=hidden;rotatable=0;points=[[0,0.5],[1,0.5]];portConstraint=eastwest;whiteSpace=wrap;html=1;" parent="E7f-zxkmuoUivOyX0J2V-1" vertex="1">
          <mxGeometry y="26" width="430" height="26" as="geometry" />
        </mxCell>
        <mxCell id="E7f-zxkmuoUivOyX0J2V-3" value="" style="line;strokeWidth=1;fillColor=none;align=left;verticalAlign=middle;spacingTop=-1;spacingLeft=3;spacingRight=3;rotatable=0;labelPosition=right;points=[];portConstraint=eastwest;strokeColor=inherit;" parent="E7f-zxkmuoUivOyX0J2V-1" vertex="1">
          <mxGeometry y="52" width="430" height="8" as="geometry" />
        </mxCell>
        <mxCell id="E7f-zxkmuoUivOyX0J2V-4" value="&lt;u&gt;+ salvarComodo(comodo : Comodo): void&lt;br&gt;&lt;br&gt;+ listarTodosComodos( ) : List&amp;lt;Comodo&amp;gt;&lt;br&gt;&lt;br&gt;+ buscarComodoPorNome(nome : String) : Comodo&lt;br&gt;&lt;br&gt;+ validarComodo(comodos : List&amp;lt;Comodo&amp;gt;, comodo : Comodo) : void&lt;br&gt;&lt;br&gt;+&amp;nbsp;&lt;/u&gt;&lt;u style=&quot;border-color: var(--border-color);&quot;&gt;desvincularDoComodo(dipositivo : Dispositivo, comodo : Comodo) : void&lt;/u&gt;&lt;u&gt;&lt;br&gt;&lt;br&gt;+ atualizarComodo(comodoAtualizado : Comodo) : void&lt;br&gt;&lt;br&gt;+ salvarTodosComodos(comodos : List&amp;lt;Comodo&amp;gt;) : void&lt;br&gt;&lt;br&gt;+ excluirComodoDoBanco(comodo : Comodo) : void&lt;br&gt;&lt;br&gt;+ excluir(com : Comodo) : void&lt;br&gt;&lt;/u&gt;" style="text;strokeColor=none;fillColor=none;align=left;verticalAlign=top;spacingLeft=4;spacingRight=4;overflow=hidden;rotatable=0;points=[[0,0.5],[1,0.5]];portConstraint=eastwest;whiteSpace=wrap;html=1;" parent="E7f-zxkmuoUivOyX0J2V-1" vertex="1">
          <mxGeometry y="60" width="430" height="270" as="geometry" />
        </mxCell>
        <mxCell id="E7f-zxkmuoUivOyX0J2V-6" value="DispositivoRepository" style="swimlane;fontStyle=1;align=center;verticalAlign=top;childLayout=stackLayout;horizontal=1;startSize=26;horizontalStack=0;resizeParent=1;resizeParentMax=0;resizeLast=0;collapsible=1;marginBottom=0;whiteSpace=wrap;html=1;" parent="1" vertex="1">
          <mxGeometry x="-190" y="-921" width="430" height="330" as="geometry" />
        </mxCell>
        <mxCell id="E7f-zxkmuoUivOyX0J2V-7" value="&lt;u&gt;- ARQUIVO_BD: String&amp;nbsp;&lt;/u&gt;" style="text;strokeColor=none;fillColor=none;align=left;verticalAlign=top;spacingLeft=4;spacingRight=4;overflow=hidden;rotatable=0;points=[[0,0.5],[1,0.5]];portConstraint=eastwest;whiteSpace=wrap;html=1;" parent="E7f-zxkmuoUivOyX0J2V-6" vertex="1">
          <mxGeometry y="26" width="430" height="26" as="geometry" />
        </mxCell>
        <mxCell id="E7f-zxkmuoUivOyX0J2V-8" value="" style="line;strokeWidth=1;fillColor=none;align=left;verticalAlign=middle;spacingTop=-1;spacingLeft=3;spacingRight=3;rotatable=0;labelPosition=right;points=[];portConstraint=eastwest;strokeColor=inherit;" parent="E7f-zxkmuoUivOyX0J2V-6" vertex="1">
          <mxGeometry y="52" width="430" height="8" as="geometry" />
        </mxCell>
        <mxCell id="E7f-zxkmuoUivOyX0J2V-9" value="&lt;u&gt;+ salvarDispositivo(dispositivo : Dispositivo): void&lt;br&gt;&lt;br&gt;+ listarTodosDispositivos( ) : List&amp;lt;Dispositivo&amp;gt;&lt;br&gt;&lt;br&gt;+ buscarDispositivoPorNome(nome : String) : Dispositivo&lt;br&gt;&lt;br&gt;&lt;/u&gt;&lt;u style=&quot;border-color: var(--border-color);&quot;&gt;+ buscarDispositivoPorNomeETipo(nome : String, tipo : String) : Dispositivo&lt;/u&gt;&lt;u&gt;&lt;br&gt;&lt;br&gt;&lt;/u&gt;&lt;u style=&quot;border-color: var(--border-color);&quot;&gt;+ atualizarDispositivo(dispositivoAtualizado : Dispositivo) : void&lt;/u&gt;&lt;u&gt;&lt;br&gt;&lt;br&gt;+ salvarTodosDispositivos(dispositivos : List&amp;lt;Dispositivo&amp;gt;) : void&lt;br&gt;&lt;br&gt;&lt;/u&gt;&lt;u style=&quot;border-color: var(--border-color);&quot;&gt;+&amp;nbsp;&lt;/u&gt;&lt;u style=&quot;border-color: var(--border-color);&quot;&gt;desvincularDispositivo(dipositivo : Dispositivo, comodo : Comodo) : void&lt;br&gt;&lt;/u&gt;&lt;u&gt;&lt;br&gt;+ ligarDesligarNoBanco(dispositivo Dispositivo, comodo Comodo) : void&lt;br&gt;&lt;br&gt;+ excluirComodoDoBanco(comodo : Comodo) : void&lt;br&gt;&lt;/u&gt;" style="text;strokeColor=none;fillColor=none;align=left;verticalAlign=top;spacingLeft=4;spacingRight=4;overflow=hidden;rotatable=0;points=[[0,0.5],[1,0.5]];portConstraint=eastwest;whiteSpace=wrap;html=1;" parent="E7f-zxkmuoUivOyX0J2V-6" vertex="1">
          <mxGeometry y="60" width="430" height="270" as="geometry" />
        </mxCell>
        <mxCell id="E7f-zxkmuoUivOyX0J2V-10" value="Instanciador" style="swimlane;fontStyle=1;align=center;verticalAlign=top;childLayout=stackLayout;horizontal=1;startSize=26;horizontalStack=0;resizeParent=1;resizeParentMax=0;resizeLast=0;collapsible=1;marginBottom=0;whiteSpace=wrap;html=1;" parent="1" vertex="1">
          <mxGeometry x="-960" y="880" width="330" height="60" as="geometry" />
        </mxCell>
        <mxCell id="E7f-zxkmuoUivOyX0J2V-12" value="" style="line;strokeWidth=1;fillColor=none;align=left;verticalAlign=middle;spacingTop=-1;spacingLeft=3;spacingRight=3;rotatable=0;labelPosition=right;points=[];portConstraint=eastwest;strokeColor=inherit;" parent="E7f-zxkmuoUivOyX0J2V-10" vertex="1">
          <mxGeometry y="26" width="330" height="8" as="geometry" />
        </mxCell>
        <mxCell id="E7f-zxkmuoUivOyX0J2V-13" value="+ instanciar(tipoDispositivo : TipoDispositivo): Dispositivo" style="text;strokeColor=none;fillColor=none;align=left;verticalAlign=top;spacingLeft=4;spacingRight=4;overflow=hidden;rotatable=0;points=[[0,0.5],[1,0.5]];portConstraint=eastwest;whiteSpace=wrap;html=1;" parent="E7f-zxkmuoUivOyX0J2V-10" vertex="1">
          <mxGeometry y="34" width="330" height="26" as="geometry" />
        </mxCell>
        <mxCell id="WsOr0CwrHRGJlh60g0OZ-9" value="&lt;p style=&quot;margin:0px;margin-top:4px;text-align:center;&quot;&gt;&lt;i&gt;&amp;lt;&amp;lt;enumeration&amp;gt;&amp;gt;&lt;/i&gt;&lt;br&gt;&lt;b&gt;TipoComodo&lt;/b&gt;&lt;/p&gt;&lt;hr size=&quot;1&quot;&gt;&lt;p style=&quot;margin:0px;margin-left:4px;&quot;&gt;+ nome : String&lt;/p&gt;&lt;p style=&quot;margin:0px;margin-left:4px;&quot;&gt;&lt;span style=&quot;background-color: initial;&quot;&gt;Quarto&lt;/span&gt;&lt;/p&gt;&lt;p style=&quot;margin:0px;margin-left:4px;&quot;&gt;&lt;span style=&quot;background-color: initial;&quot;&gt;Sala&lt;br&gt;&lt;/span&gt;&lt;/p&gt;&lt;p style=&quot;margin:0px;margin-left:4px;&quot;&gt;&lt;span style=&quot;background-color: initial;&quot;&gt;Cozinha&lt;/span&gt;&lt;/p&gt;&lt;p style=&quot;margin:0px;margin-left:4px;&quot;&gt;&lt;span style=&quot;background-color: initial;&quot;&gt;Banheiro&lt;/span&gt;&lt;/p&gt;&lt;hr size=&quot;1&quot;&gt;&lt;p style=&quot;margin:0px;margin-left:4px;&quot;&gt;+ TipoComodo(nome : String)&lt;br&gt;&lt;/p&gt;&lt;p style=&quot;margin:0px;margin-left:4px;&quot;&gt;+ getNome( ) : String&lt;/p&gt;" style="verticalAlign=top;align=left;overflow=fill;fontSize=12;fontFamily=Helvetica;html=1;whiteSpace=wrap;" vertex="1" parent="1">
          <mxGeometry x="500" y="-475" width="170" height="170" as="geometry" />
        </mxCell>
        <mxCell id="WsOr0CwrHRGJlh60g0OZ-78" style="edgeStyle=orthogonalEdgeStyle;rounded=0;orthogonalLoop=1;jettySize=auto;html=1;endArrow=open;endFill=0;" edge="1" parent="1" source="WsOr0CwrHRGJlh60g0OZ-10" target="WsOr0CwrHRGJlh60g0OZ-77">
          <mxGeometry relative="1" as="geometry">
            <Array as="points">
              <mxPoint x="90" y="1065" />
              <mxPoint x="90" y="1065" />
            </Array>
          </mxGeometry>
        </mxCell>
        <mxCell id="WsOr0CwrHRGJlh60g0OZ-10" value="Screen" style="swimlane;fontStyle=1;align=center;verticalAlign=top;childLayout=stackLayout;horizontal=1;startSize=26;horizontalStack=0;resizeParent=1;resizeParentMax=0;resizeLast=0;collapsible=1;marginBottom=0;whiteSpace=wrap;html=1;" vertex="1" parent="1">
          <mxGeometry x="190" y="970" width="310" height="190" as="geometry" />
        </mxCell>
        <mxCell id="WsOr0CwrHRGJlh60g0OZ-11" value="- componenteAtivo : JComponent&lt;br&gt;- panelOpcoes : JPanel&lt;br&gt;- btnCadastrarDispositivo : JButton&lt;br&gt;- btnCadastrarComodo : JButton&lt;br&gt;- btnListarDispositivos : JButton&lt;br&gt;- dispositivosList : List&amp;lt;Dispositivos&amp;gt;" style="text;strokeColor=none;fillColor=none;align=left;verticalAlign=top;spacingLeft=4;spacingRight=4;overflow=hidden;rotatable=0;points=[[0,0.5],[1,0.5]];portConstraint=eastwest;whiteSpace=wrap;html=1;" vertex="1" parent="WsOr0CwrHRGJlh60g0OZ-10">
          <mxGeometry y="26" width="310" height="94" as="geometry" />
        </mxCell>
        <mxCell id="WsOr0CwrHRGJlh60g0OZ-12" value="" style="line;strokeWidth=1;fillColor=none;align=left;verticalAlign=middle;spacingTop=-1;spacingLeft=3;spacingRight=3;rotatable=0;labelPosition=right;points=[];portConstraint=eastwest;strokeColor=inherit;" vertex="1" parent="WsOr0CwrHRGJlh60g0OZ-10">
          <mxGeometry y="120" width="310" height="8" as="geometry" />
        </mxCell>
        <mxCell id="WsOr0CwrHRGJlh60g0OZ-13" value="+ Screen( )&lt;br&gt;+ actionPerformed( actionEvent : ActionEvent) : void&lt;br&gt;+ adicionarTelaDeAcao(component JComponent) : void" style="text;strokeColor=none;fillColor=none;align=left;verticalAlign=top;spacingLeft=4;spacingRight=4;overflow=hidden;rotatable=0;points=[[0,0.5],[1,0.5]];portConstraint=eastwest;whiteSpace=wrap;html=1;" vertex="1" parent="WsOr0CwrHRGJlh60g0OZ-10">
          <mxGeometry y="128" width="310" height="62" as="geometry" />
        </mxCell>
        <mxCell id="WsOr0CwrHRGJlh60g0OZ-47" style="edgeStyle=orthogonalEdgeStyle;rounded=0;orthogonalLoop=1;jettySize=auto;html=1;endArrow=block;endFill=0;" edge="1" parent="1" source="WsOr0CwrHRGJlh60g0OZ-14" target="WsOr0CwrHRGJlh60g0OZ-46">
          <mxGeometry relative="1" as="geometry">
            <Array as="points">
              <mxPoint x="1050" y="900" />
            </Array>
          </mxGeometry>
        </mxCell>
        <mxCell id="WsOr0CwrHRGJlh60g0OZ-14" value="CadastrarComodo" style="swimlane;fontStyle=1;align=center;verticalAlign=top;childLayout=stackLayout;horizontal=1;startSize=26;horizontalStack=0;resizeParent=1;resizeParentMax=0;resizeLast=0;collapsible=1;marginBottom=0;whiteSpace=wrap;html=1;" vertex="1" parent="1">
          <mxGeometry x="960" y="-110" width="310" height="210" as="geometry" />
        </mxCell>
        <mxCell id="WsOr0CwrHRGJlh60g0OZ-15" value="- panelListaComodos : JPanel&lt;br&gt;- tipoComodo : List&amp;lt;TipoComodo&amp;gt;&lt;br&gt;- comboBoxComodo : JComboBox&amp;lt;TipoComodo&amp;gt;&lt;br&gt;- checkBoxes : List&amp;lt;JCheckBox&amp;gt;&lt;br&gt;- textFieldNomeDoComodo : JTextField" style="text;strokeColor=none;fillColor=none;align=left;verticalAlign=top;spacingLeft=4;spacingRight=4;overflow=hidden;rotatable=0;points=[[0,0.5],[1,0.5]];portConstraint=eastwest;whiteSpace=wrap;html=1;" vertex="1" parent="WsOr0CwrHRGJlh60g0OZ-14">
          <mxGeometry y="26" width="310" height="94" as="geometry" />
        </mxCell>
        <mxCell id="WsOr0CwrHRGJlh60g0OZ-16" value="" style="line;strokeWidth=1;fillColor=none;align=left;verticalAlign=middle;spacingTop=-1;spacingLeft=3;spacingRight=3;rotatable=0;labelPosition=right;points=[];portConstraint=eastwest;strokeColor=inherit;" vertex="1" parent="WsOr0CwrHRGJlh60g0OZ-14">
          <mxGeometry y="120" width="310" height="8" as="geometry" />
        </mxCell>
        <mxCell id="WsOr0CwrHRGJlh60g0OZ-17" value="+ CadastrarComodo(component : Screen)&lt;br&gt;+ adicionandoPainelCadastroDeComodos() : void&lt;br&gt;+ vincularAoComodo( ) : void&lt;br&gt;+ efetuarVinculo(actionEvent : ActionEvent) : void&lt;br&gt;+ listaDeDispositivosCadastrado( ) : void" style="text;strokeColor=none;fillColor=none;align=left;verticalAlign=top;spacingLeft=4;spacingRight=4;overflow=hidden;rotatable=0;points=[[0,0.5],[1,0.5]];portConstraint=eastwest;whiteSpace=wrap;html=1;" vertex="1" parent="WsOr0CwrHRGJlh60g0OZ-14">
          <mxGeometry y="128" width="310" height="82" as="geometry" />
        </mxCell>
        <mxCell id="WsOr0CwrHRGJlh60g0OZ-18" value="CadastrarDispositivo" style="swimlane;fontStyle=1;align=center;verticalAlign=top;childLayout=stackLayout;horizontal=1;startSize=26;horizontalStack=0;resizeParent=1;resizeParentMax=0;resizeLast=0;collapsible=1;marginBottom=0;whiteSpace=wrap;html=1;" vertex="1" parent="1">
          <mxGeometry x="-550" y="590" width="360" height="190" as="geometry" />
        </mxCell>
        <mxCell id="WsOr0CwrHRGJlh60g0OZ-19" value="- panelListaDispositivo : JPanel&lt;br&gt;- nomeDispositivo : JTextField&lt;br&gt;- tipoDispositivo : List&amp;lt;TipoDispositivo&amp;gt;&lt;br&gt;- comboBoxTipoDispositivo: JComboBox&amp;lt;TipoDispositivo&amp;gt;&lt;br&gt;- checkboxes : List&amp;lt;JCheckBox&amp;gt;" style="text;strokeColor=none;fillColor=none;align=left;verticalAlign=top;spacingLeft=4;spacingRight=4;overflow=hidden;rotatable=0;points=[[0,0.5],[1,0.5]];portConstraint=eastwest;whiteSpace=wrap;html=1;" vertex="1" parent="WsOr0CwrHRGJlh60g0OZ-18">
          <mxGeometry y="26" width="360" height="94" as="geometry" />
        </mxCell>
        <mxCell id="WsOr0CwrHRGJlh60g0OZ-20" value="" style="line;strokeWidth=1;fillColor=none;align=left;verticalAlign=middle;spacingTop=-1;spacingLeft=3;spacingRight=3;rotatable=0;labelPosition=right;points=[];portConstraint=eastwest;strokeColor=inherit;" vertex="1" parent="WsOr0CwrHRGJlh60g0OZ-18">
          <mxGeometry y="120" width="360" height="8" as="geometry" />
        </mxCell>
        <mxCell id="WsOr0CwrHRGJlh60g0OZ-21" value="+ CadastrarDispositivo(component : Screen)&lt;br&gt;+ adicionandoPainelCadastroDeDispositivos() : void&lt;br&gt;+ cadastrar(actionEvent : ActionEvent) : void" style="text;strokeColor=none;fillColor=none;align=left;verticalAlign=top;spacingLeft=4;spacingRight=4;overflow=hidden;rotatable=0;points=[[0,0.5],[1,0.5]];portConstraint=eastwest;whiteSpace=wrap;html=1;" vertex="1" parent="WsOr0CwrHRGJlh60g0OZ-18">
          <mxGeometry y="128" width="360" height="62" as="geometry" />
        </mxCell>
        <mxCell id="WsOr0CwrHRGJlh60g0OZ-22" value="EditarComponentes" style="swimlane;fontStyle=1;align=center;verticalAlign=top;childLayout=stackLayout;horizontal=1;startSize=26;horizontalStack=0;resizeParent=1;resizeParentMax=0;resizeLast=0;collapsible=1;marginBottom=0;whiteSpace=wrap;html=1;" vertex="1" parent="1">
          <mxGeometry x="90" y="181" width="440" height="240" as="geometry" />
        </mxCell>
        <mxCell id="WsOr0CwrHRGJlh60g0OZ-23" value="- estadoDisp : JLabel&lt;br&gt;- comboBoxDispositivos: JComboBox&amp;lt;String&amp;gt;&lt;br&gt;- container : JPanel" style="text;strokeColor=none;fillColor=none;align=left;verticalAlign=top;spacingLeft=4;spacingRight=4;overflow=hidden;rotatable=0;points=[[0,0.5],[1,0.5]];portConstraint=eastwest;whiteSpace=wrap;html=1;" vertex="1" parent="WsOr0CwrHRGJlh60g0OZ-22">
          <mxGeometry y="26" width="440" height="54" as="geometry" />
        </mxCell>
        <mxCell id="WsOr0CwrHRGJlh60g0OZ-24" value="" style="line;strokeWidth=1;fillColor=none;align=left;verticalAlign=middle;spacingTop=-1;spacingLeft=3;spacingRight=3;rotatable=0;labelPosition=right;points=[];portConstraint=eastwest;strokeColor=inherit;" vertex="1" parent="WsOr0CwrHRGJlh60g0OZ-22">
          <mxGeometry y="80" width="440" height="8" as="geometry" />
        </mxCell>
        <mxCell id="WsOr0CwrHRGJlh60g0OZ-25" value="- EditarComponentes(comodo : Comodo)&lt;br&gt;- addTelaInicial(comodo : Comodo) : void&lt;br&gt;- vincularDispositivoAoComodo(comodo : Comodo) : void&lt;br&gt;- listaDeDispositivos(comodo : Comodo) : Component&lt;br&gt;- ligarDesligar(disp : Dispositivo, comodo : Comodo) : void&lt;br&gt;- desvincularDispositivoDoComodo(comodo : Comodo, disp : Dispositivo) : void&lt;br&gt;- excluirDispositivo(disp : Dispositivo, comando : Comodo) : void&lt;br&gt;- excluirComodo(comodo : Comodo) : void" style="text;strokeColor=none;fillColor=none;align=left;verticalAlign=top;spacingLeft=4;spacingRight=4;overflow=hidden;rotatable=0;points=[[0,0.5],[1,0.5]];portConstraint=eastwest;whiteSpace=wrap;html=1;" vertex="1" parent="WsOr0CwrHRGJlh60g0OZ-22">
          <mxGeometry y="88" width="440" height="152" as="geometry" />
        </mxCell>
        <mxCell id="WsOr0CwrHRGJlh60g0OZ-26" value="ListarDispositivos" style="swimlane;fontStyle=1;align=center;verticalAlign=top;childLayout=stackLayout;horizontal=1;startSize=26;horizontalStack=0;resizeParent=1;resizeParentMax=0;resizeLast=0;collapsible=1;marginBottom=0;whiteSpace=wrap;html=1;" vertex="1" parent="1">
          <mxGeometry x="640" y="572" width="310" height="170" as="geometry" />
        </mxCell>
        <mxCell id="WsOr0CwrHRGJlh60g0OZ-27" value="- panelComodosEDispositivos : JPanel&lt;br&gt;- painelAtual : JPanel&lt;br&gt;- btnList : List&amp;lt;JButton&amp;gt;&lt;br&gt;" style="text;strokeColor=none;fillColor=none;align=left;verticalAlign=top;spacingLeft=4;spacingRight=4;overflow=hidden;rotatable=0;points=[[0,0.5],[1,0.5]];portConstraint=eastwest;whiteSpace=wrap;html=1;" vertex="1" parent="WsOr0CwrHRGJlh60g0OZ-26">
          <mxGeometry y="26" width="310" height="54" as="geometry" />
        </mxCell>
        <mxCell id="WsOr0CwrHRGJlh60g0OZ-28" value="" style="line;strokeWidth=1;fillColor=none;align=left;verticalAlign=middle;spacingTop=-1;spacingLeft=3;spacingRight=3;rotatable=0;labelPosition=right;points=[];portConstraint=eastwest;strokeColor=inherit;" vertex="1" parent="WsOr0CwrHRGJlh60g0OZ-26">
          <mxGeometry y="80" width="310" height="8" as="geometry" />
        </mxCell>
        <mxCell id="WsOr0CwrHRGJlh60g0OZ-29" value="+ ListarDispositivos(component : Screen)&lt;br&gt;-&amp;nbsp; adcTelaListar( ) : void&lt;br&gt;- listaDeComodos( ) : Component&lt;br&gt;- mostrarComodo(nome : String) : void&lt;br&gt;- editarComponente(comodo : Comodo) : void" style="text;strokeColor=none;fillColor=none;align=left;verticalAlign=top;spacingLeft=4;spacingRight=4;overflow=hidden;rotatable=0;points=[[0,0.5],[1,0.5]];portConstraint=eastwest;whiteSpace=wrap;html=1;" vertex="1" parent="WsOr0CwrHRGJlh60g0OZ-26">
          <mxGeometry y="88" width="310" height="82" as="geometry" />
        </mxCell>
        <mxCell id="WsOr0CwrHRGJlh60g0OZ-30" value="DadosInvalidosException" style="swimlane;fontStyle=1;align=center;verticalAlign=top;childLayout=stackLayout;horizontal=1;startSize=26;horizontalStack=0;resizeParent=1;resizeParentMax=0;resizeLast=0;collapsible=1;marginBottom=0;whiteSpace=wrap;html=1;" vertex="1" parent="1">
          <mxGeometry x="20" y="530" width="330" height="60" as="geometry" />
        </mxCell>
        <mxCell id="WsOr0CwrHRGJlh60g0OZ-31" value="" style="line;strokeWidth=1;fillColor=none;align=left;verticalAlign=middle;spacingTop=-1;spacingLeft=3;spacingRight=3;rotatable=0;labelPosition=right;points=[];portConstraint=eastwest;strokeColor=inherit;" vertex="1" parent="WsOr0CwrHRGJlh60g0OZ-30">
          <mxGeometry y="26" width="330" height="8" as="geometry" />
        </mxCell>
        <mxCell id="WsOr0CwrHRGJlh60g0OZ-32" value="+ DadosInvalidosException(message : String)" style="text;strokeColor=none;fillColor=none;align=left;verticalAlign=top;spacingLeft=4;spacingRight=4;overflow=hidden;rotatable=0;points=[[0,0.5],[1,0.5]];portConstraint=eastwest;whiteSpace=wrap;html=1;" vertex="1" parent="WsOr0CwrHRGJlh60g0OZ-30">
          <mxGeometry y="34" width="330" height="26" as="geometry" />
        </mxCell>
        <mxCell id="WsOr0CwrHRGJlh60g0OZ-33" value="DispositivoJaExisteException" style="swimlane;fontStyle=1;align=center;verticalAlign=top;childLayout=stackLayout;horizontal=1;startSize=26;horizontalStack=0;resizeParent=1;resizeParentMax=0;resizeLast=0;collapsible=1;marginBottom=0;whiteSpace=wrap;html=1;" vertex="1" parent="1">
          <mxGeometry x="20" y="612" width="330" height="60" as="geometry" />
        </mxCell>
        <mxCell id="WsOr0CwrHRGJlh60g0OZ-34" value="" style="line;strokeWidth=1;fillColor=none;align=left;verticalAlign=middle;spacingTop=-1;spacingLeft=3;spacingRight=3;rotatable=0;labelPosition=right;points=[];portConstraint=eastwest;strokeColor=inherit;" vertex="1" parent="WsOr0CwrHRGJlh60g0OZ-33">
          <mxGeometry y="26" width="330" height="8" as="geometry" />
        </mxCell>
        <mxCell id="WsOr0CwrHRGJlh60g0OZ-35" value="+ DispositivoJaExisteException(message : String)" style="text;strokeColor=none;fillColor=none;align=left;verticalAlign=top;spacingLeft=4;spacingRight=4;overflow=hidden;rotatable=0;points=[[0,0.5],[1,0.5]];portConstraint=eastwest;whiteSpace=wrap;html=1;" vertex="1" parent="WsOr0CwrHRGJlh60g0OZ-33">
          <mxGeometry y="34" width="330" height="26" as="geometry" />
        </mxCell>
        <mxCell id="WsOr0CwrHRGJlh60g0OZ-40" value="&lt;p style=&quot;margin:0px;margin-top:4px;text-align:center;&quot;&gt;&lt;i&gt;&amp;lt;&amp;lt;interface&amp;gt;&amp;gt;&lt;/i&gt;&lt;br&gt;&lt;b&gt;Serializable&lt;/b&gt;&lt;/p&gt;&lt;hr size=&quot;1&quot;&gt;&lt;p style=&quot;margin:0px;margin-left:4px;&quot;&gt;&lt;br&gt;&lt;/p&gt;&lt;hr size=&quot;1&quot;&gt;&lt;p style=&quot;margin:0px;margin-left:4px;&quot;&gt;&lt;br&gt;&lt;/p&gt;" style="verticalAlign=top;align=left;overflow=fill;fontSize=12;fontFamily=Helvetica;html=1;whiteSpace=wrap;" vertex="1" parent="1">
          <mxGeometry x="-30" y="-330" width="150" height="80" as="geometry" />
        </mxCell>
        <mxCell id="WsOr0CwrHRGJlh60g0OZ-43" style="edgeStyle=orthogonalEdgeStyle;rounded=0;orthogonalLoop=1;jettySize=auto;html=1;dashed=1;endArrow=block;endFill=0;" edge="1" parent="1" source="t9GdW167zXyRgESBG7st-4" target="WsOr0CwrHRGJlh60g0OZ-40">
          <mxGeometry relative="1" as="geometry">
            <mxPoint x="55" y="-140" as="sourcePoint" />
            <mxPoint x="55" y="-250" as="targetPoint" />
            <Array as="points">
              <mxPoint x="280" y="-130" />
              <mxPoint x="280" y="-305" />
            </Array>
          </mxGeometry>
        </mxCell>
        <mxCell id="WsOr0CwrHRGJlh60g0OZ-46" value="&lt;p style=&quot;margin:0px;margin-top:4px;text-align:center;&quot;&gt;&lt;b&gt;JPanel&lt;/b&gt;&lt;/p&gt;&lt;hr size=&quot;1&quot;&gt;&lt;p style=&quot;margin:0px;margin-left:4px;&quot;&gt;&lt;br&gt;&lt;/p&gt;&lt;hr size=&quot;1&quot;&gt;&lt;p style=&quot;margin:0px;margin-left:4px;&quot;&gt;&lt;br&gt;&lt;/p&gt;" style="verticalAlign=top;align=left;overflow=fill;fontSize=12;fontFamily=Helvetica;html=1;whiteSpace=wrap;" vertex="1" parent="1">
          <mxGeometry x="290" y="840" width="110" height="70" as="geometry" />
        </mxCell>
        <mxCell id="WsOr0CwrHRGJlh60g0OZ-48" style="edgeStyle=orthogonalEdgeStyle;rounded=0;orthogonalLoop=1;jettySize=auto;html=1;endArrow=block;endFill=0;" edge="1" parent="1" source="WsOr0CwrHRGJlh60g0OZ-10" target="WsOr0CwrHRGJlh60g0OZ-46">
          <mxGeometry relative="1" as="geometry">
            <mxPoint x="1075" y="366" as="sourcePoint" />
            <mxPoint x="992" y="250" as="targetPoint" />
          </mxGeometry>
        </mxCell>
        <mxCell id="WsOr0CwrHRGJlh60g0OZ-49" style="edgeStyle=orthogonalEdgeStyle;rounded=0;orthogonalLoop=1;jettySize=auto;html=1;endArrow=none;endFill=0;startArrow=open;startFill=0;exitX=0.5;exitY=0;exitDx=0;exitDy=0;" edge="1" parent="1" source="WsOr0CwrHRGJlh60g0OZ-14" target="WsOr0CwrHRGJlh60g0OZ-9">
          <mxGeometry relative="1" as="geometry">
            <Array as="points">
              <mxPoint x="1115" y="-390" />
            </Array>
            <mxPoint x="595" y="-145" as="sourcePoint" />
            <mxPoint x="595" y="-295" as="targetPoint" />
          </mxGeometry>
        </mxCell>
        <mxCell id="WsOr0CwrHRGJlh60g0OZ-50" style="edgeStyle=orthogonalEdgeStyle;rounded=0;orthogonalLoop=1;jettySize=auto;html=1;endArrow=block;endFill=0;" edge="1" parent="1" source="WsOr0CwrHRGJlh60g0OZ-18" target="WsOr0CwrHRGJlh60g0OZ-46">
          <mxGeometry relative="1" as="geometry">
            <mxPoint x="325" y="350" as="sourcePoint" />
            <mxPoint x="325" y="260" as="targetPoint" />
            <Array as="points">
              <mxPoint x="-30" y="870" />
            </Array>
          </mxGeometry>
        </mxCell>
        <mxCell id="WsOr0CwrHRGJlh60g0OZ-51" style="edgeStyle=orthogonalEdgeStyle;rounded=0;orthogonalLoop=1;jettySize=auto;html=1;endArrow=none;endFill=0;startArrow=open;startFill=0;" edge="1" parent="1" source="WsOr0CwrHRGJlh60g0OZ-18" target="t9GdW167zXyRgESBG7st-11">
          <mxGeometry relative="1" as="geometry">
            <Array as="points">
              <mxPoint x="-330" y="655" />
              <mxPoint x="-330" y="702" />
            </Array>
            <mxPoint x="155" y="920" as="sourcePoint" />
            <mxPoint x="-290" y="640" as="targetPoint" />
          </mxGeometry>
        </mxCell>
        <mxCell id="WsOr0CwrHRGJlh60g0OZ-52" style="edgeStyle=orthogonalEdgeStyle;rounded=0;orthogonalLoop=1;jettySize=auto;html=1;endArrow=block;endFill=0;" edge="1" parent="1" source="WsOr0CwrHRGJlh60g0OZ-26" target="WsOr0CwrHRGJlh60g0OZ-46">
          <mxGeometry relative="1" as="geometry">
            <mxPoint x="325" y="350" as="sourcePoint" />
            <mxPoint x="325" y="260" as="targetPoint" />
            <Array as="points">
              <mxPoint x="540" y="875" />
              <mxPoint x="540" y="875" />
            </Array>
          </mxGeometry>
        </mxCell>
        <mxCell id="WsOr0CwrHRGJlh60g0OZ-53" value="&lt;p style=&quot;margin:0px;margin-top:4px;text-align:center;&quot;&gt;&lt;b&gt;JFrame&lt;/b&gt;&lt;/p&gt;&lt;hr size=&quot;1&quot;&gt;&lt;p style=&quot;margin:0px;margin-left:4px;&quot;&gt;&lt;br&gt;&lt;/p&gt;&lt;hr size=&quot;1&quot;&gt;&lt;p style=&quot;margin:0px;margin-left:4px;&quot;&gt;&lt;br&gt;&lt;/p&gt;" style="verticalAlign=top;align=left;overflow=fill;fontSize=12;fontFamily=Helvetica;html=1;whiteSpace=wrap;" vertex="1" parent="1">
          <mxGeometry x="-110" y="280" width="110" height="74" as="geometry" />
        </mxCell>
        <mxCell id="WsOr0CwrHRGJlh60g0OZ-54" style="edgeStyle=orthogonalEdgeStyle;rounded=0;orthogonalLoop=1;jettySize=auto;html=1;endArrow=block;endFill=0;" edge="1" parent="1" source="WsOr0CwrHRGJlh60g0OZ-22" target="WsOr0CwrHRGJlh60g0OZ-53">
          <mxGeometry relative="1" as="geometry">
            <mxPoint x="70" y="747" as="sourcePoint" />
            <mxPoint x="70" y="657" as="targetPoint" />
          </mxGeometry>
        </mxCell>
        <mxCell id="WsOr0CwrHRGJlh60g0OZ-55" style="edgeStyle=orthogonalEdgeStyle;rounded=0;orthogonalLoop=1;jettySize=auto;html=1;endArrow=open;endFill=0;startArrow=none;startFill=0;dashed=1;" edge="1" parent="1" source="E7f-zxkmuoUivOyX0J2V-4" target="t9GdW167zXyRgESBG7st-4">
          <mxGeometry relative="1" as="geometry">
            <Array as="points">
              <mxPoint x="460" y="-720" />
            </Array>
            <mxPoint x="330" y="-315" as="sourcePoint" />
            <mxPoint x="330" y="-465" as="targetPoint" />
          </mxGeometry>
        </mxCell>
        <mxCell id="WsOr0CwrHRGJlh60g0OZ-56" style="edgeStyle=orthogonalEdgeStyle;rounded=0;orthogonalLoop=1;jettySize=auto;html=1;endArrow=open;endFill=0;startArrow=none;startFill=0;dashed=1;entryX=0.25;entryY=0;entryDx=0;entryDy=0;" edge="1" parent="1" source="E7f-zxkmuoUivOyX0J2V-9" target="t9GdW167zXyRgESBG7st-17">
          <mxGeometry relative="1" as="geometry">
            <Array as="points">
              <mxPoint x="-120" y="-210" />
              <mxPoint x="-12" y="-210" />
            </Array>
            <mxPoint x="414" y="-700" as="sourcePoint" />
            <mxPoint x="304" y="-135" as="targetPoint" />
          </mxGeometry>
        </mxCell>
        <mxCell id="WsOr0CwrHRGJlh60g0OZ-57" style="edgeStyle=orthogonalEdgeStyle;rounded=0;orthogonalLoop=1;jettySize=auto;html=1;endArrow=open;endFill=0;startArrow=none;startFill=0;dashed=1;" edge="1" parent="1" source="E7f-zxkmuoUivOyX0J2V-1" target="t9GdW167zXyRgESBG7st-17">
          <mxGeometry relative="1" as="geometry">
            <Array as="points">
              <mxPoint x="380" y="-820" />
              <mxPoint x="380" y="-210" />
              <mxPoint x="120" y="-210" />
            </Array>
            <mxPoint x="590" y="-700" as="sourcePoint" />
            <mxPoint x="480" y="-135" as="targetPoint" />
          </mxGeometry>
        </mxCell>
        <mxCell id="WsOr0CwrHRGJlh60g0OZ-60" style="edgeStyle=orthogonalEdgeStyle;rounded=0;orthogonalLoop=1;jettySize=auto;html=1;endArrow=none;endFill=0;startArrow=open;startFill=0;dashed=1;exitX=0.997;exitY=0.781;exitDx=0;exitDy=0;exitPerimeter=0;" edge="1" parent="1" source="t9GdW167zXyRgESBG7st-17" target="WsOr0CwrHRGJlh60g0OZ-22">
          <mxGeometry relative="1" as="geometry">
            <Array as="points">
              <mxPoint x="240" y="53" />
            </Array>
            <mxPoint x="240" y="-131" as="sourcePoint" />
            <mxPoint x="348" y="310" as="targetPoint" />
          </mxGeometry>
        </mxCell>
        <mxCell id="WsOr0CwrHRGJlh60g0OZ-61" style="edgeStyle=orthogonalEdgeStyle;rounded=0;orthogonalLoop=1;jettySize=auto;html=1;endArrow=none;endFill=0;startArrow=open;startFill=0;dashed=1;exitX=0;exitY=0.75;exitDx=0;exitDy=0;" edge="1" parent="1" source="t9GdW167zXyRgESBG7st-4" target="WsOr0CwrHRGJlh60g0OZ-22">
          <mxGeometry relative="1" as="geometry">
            <Array as="points">
              <mxPoint x="350" y="47" />
            </Array>
            <mxPoint x="169" y="63" as="sourcePoint" />
            <mxPoint x="250" y="191" as="targetPoint" />
          </mxGeometry>
        </mxCell>
        <mxCell id="WsOr0CwrHRGJlh60g0OZ-62" style="edgeStyle=orthogonalEdgeStyle;rounded=0;orthogonalLoop=1;jettySize=auto;html=1;endArrow=none;endFill=0;startArrow=open;startFill=0;" edge="1" parent="1" source="WsOr0CwrHRGJlh60g0OZ-10" target="WsOr0CwrHRGJlh60g0OZ-21">
          <mxGeometry relative="1" as="geometry">
            <Array as="points">
              <mxPoint x="-370" y="1010" />
            </Array>
            <mxPoint x="220" y="895" as="sourcePoint" />
            <mxPoint x="-60" y="1037" as="targetPoint" />
          </mxGeometry>
        </mxCell>
        <mxCell id="WsOr0CwrHRGJlh60g0OZ-63" style="edgeStyle=orthogonalEdgeStyle;rounded=0;orthogonalLoop=1;jettySize=auto;html=1;endArrow=none;endFill=0;startArrow=open;startFill=0;" edge="1" parent="1" source="WsOr0CwrHRGJlh60g0OZ-10" target="WsOr0CwrHRGJlh60g0OZ-17">
          <mxGeometry relative="1" as="geometry">
            <Array as="points">
              <mxPoint x="1115" y="1070" />
            </Array>
            <mxPoint x="944" y="940" as="sourcePoint" />
            <mxPoint x="1080" y="570" as="targetPoint" />
          </mxGeometry>
        </mxCell>
        <mxCell id="WsOr0CwrHRGJlh60g0OZ-64" style="edgeStyle=orthogonalEdgeStyle;rounded=0;orthogonalLoop=1;jettySize=auto;html=1;endArrow=none;endFill=0;startArrow=open;startFill=0;" edge="1" parent="1" source="WsOr0CwrHRGJlh60g0OZ-10" target="WsOr0CwrHRGJlh60g0OZ-29">
          <mxGeometry relative="1" as="geometry">
            <Array as="points">
              <mxPoint x="430" y="940" />
              <mxPoint x="540" y="940" />
              <mxPoint x="540" y="701" />
            </Array>
            <mxPoint x="1050" y="1169" as="sourcePoint" />
            <mxPoint x="726" y="887" as="targetPoint" />
          </mxGeometry>
        </mxCell>
        <mxCell id="WsOr0CwrHRGJlh60g0OZ-65" value="&lt;p style=&quot;margin:0px;margin-top:4px;text-align:center;&quot;&gt;&lt;b&gt;RuntimeException&lt;/b&gt;&lt;/p&gt;&lt;hr size=&quot;1&quot;&gt;&lt;p style=&quot;margin:0px;margin-left:4px;&quot;&gt;&lt;br&gt;&lt;/p&gt;&lt;hr size=&quot;1&quot;&gt;&lt;p style=&quot;margin:0px;margin-left:4px;&quot;&gt;&lt;br&gt;&lt;/p&gt;" style="verticalAlign=top;align=left;overflow=fill;fontSize=12;fontFamily=Helvetica;html=1;whiteSpace=wrap;" vertex="1" parent="1">
          <mxGeometry x="450" y="560" width="130" height="74" as="geometry" />
        </mxCell>
        <mxCell id="WsOr0CwrHRGJlh60g0OZ-70" style="edgeStyle=orthogonalEdgeStyle;rounded=0;orthogonalLoop=1;jettySize=auto;html=1;endArrow=block;endFill=0;" edge="1" parent="1" source="WsOr0CwrHRGJlh60g0OZ-30" target="WsOr0CwrHRGJlh60g0OZ-65">
          <mxGeometry relative="1" as="geometry">
            <mxPoint x="500" y="572" as="sourcePoint" />
            <mxPoint x="570" y="621" as="targetPoint" />
            <Array as="points" />
          </mxGeometry>
        </mxCell>
        <mxCell id="WsOr0CwrHRGJlh60g0OZ-71" style="edgeStyle=orthogonalEdgeStyle;rounded=0;orthogonalLoop=1;jettySize=auto;html=1;endArrow=block;endFill=0;" edge="1" parent="1" source="WsOr0CwrHRGJlh60g0OZ-33" target="WsOr0CwrHRGJlh60g0OZ-65">
          <mxGeometry relative="1" as="geometry">
            <mxPoint x="510" y="582" as="sourcePoint" />
            <mxPoint x="580" y="631" as="targetPoint" />
            <Array as="points" />
          </mxGeometry>
        </mxCell>
        <mxCell id="WsOr0CwrHRGJlh60g0OZ-72" style="edgeStyle=orthogonalEdgeStyle;rounded=0;orthogonalLoop=1;jettySize=auto;html=1;endArrow=none;endFill=0;startArrow=open;startFill=0;dashed=1;" edge="1" parent="1" source="WsOr0CwrHRGJlh60g0OZ-33" target="WsOr0CwrHRGJlh60g0OZ-18">
          <mxGeometry relative="1" as="geometry">
            <Array as="points">
              <mxPoint x="-20" y="642" />
              <mxPoint x="-20" y="642" />
            </Array>
            <mxPoint x="380" y="589.97" as="sourcePoint" />
            <mxPoint x="100" y="731.97" as="targetPoint" />
          </mxGeometry>
        </mxCell>
        <mxCell id="WsOr0CwrHRGJlh60g0OZ-73" value="&amp;lt;&amp;lt;throws&amp;gt;&amp;gt;" style="text;html=1;align=center;verticalAlign=middle;resizable=0;points=[];autosize=1;strokeColor=none;fillColor=none;" vertex="1" parent="1">
          <mxGeometry x="-140" y="622" width="90" height="30" as="geometry" />
        </mxCell>
        <mxCell id="WsOr0CwrHRGJlh60g0OZ-75" style="edgeStyle=orthogonalEdgeStyle;rounded=0;orthogonalLoop=1;jettySize=auto;html=1;endArrow=none;endFill=0;startArrow=open;startFill=0;dashed=1;" edge="1" parent="1" source="WsOr0CwrHRGJlh60g0OZ-30" target="WsOr0CwrHRGJlh60g0OZ-17">
          <mxGeometry relative="1" as="geometry">
            <Array as="points">
              <mxPoint x="185" y="470" />
              <mxPoint x="870" y="470" />
              <mxPoint x="870" y="59" />
            </Array>
            <mxPoint x="310" y="520" as="sourcePoint" />
            <mxPoint x="980" y="290" as="targetPoint" />
          </mxGeometry>
        </mxCell>
        <mxCell id="WsOr0CwrHRGJlh60g0OZ-76" style="edgeStyle=orthogonalEdgeStyle;rounded=0;orthogonalLoop=1;jettySize=auto;html=1;endArrow=none;endFill=0;startArrow=open;startFill=0;" edge="1" parent="1" source="WsOr0CwrHRGJlh60g0OZ-26" target="WsOr0CwrHRGJlh60g0OZ-22">
          <mxGeometry relative="1" as="geometry">
            <Array as="points">
              <mxPoint x="760" y="301" />
            </Array>
            <mxPoint x="600" y="484.5" as="sourcePoint" />
            <mxPoint x="810" y="215.5" as="targetPoint" />
          </mxGeometry>
        </mxCell>
        <mxCell id="WsOr0CwrHRGJlh60g0OZ-77" value="&lt;p style=&quot;margin:0px;margin-top:4px;text-align:center;&quot;&gt;&lt;b&gt;Main&lt;/b&gt;&lt;/p&gt;&lt;hr size=&quot;1&quot;&gt;&lt;p style=&quot;margin:0px;margin-left:4px;&quot;&gt;&lt;br&gt;&lt;/p&gt;&lt;hr size=&quot;1&quot;&gt;&lt;p style=&quot;margin:0px;margin-left:4px;&quot;&gt;&lt;u&gt;+ main(args : String[ ]) : void&lt;/u&gt;&lt;/p&gt;" style="verticalAlign=top;align=left;overflow=fill;fontSize=12;fontFamily=Helvetica;html=1;whiteSpace=wrap;" vertex="1" parent="1">
          <mxGeometry x="-120" y="1040" width="180" height="80" as="geometry" />
        </mxCell>
      </root>
    </mxGraphModel>
  </diagram>
</mxfile>
